<?xml version="1.0" standalone="no"?>
<!DOCTYPE svg PUBLIC "-//W3C//DTD SVG 20010904//EN"
 "http://www.w3.org/TR/2001/REC-SVG-20010904/DTD/svg10.dtd">
<svg version="1.0" xmlns="http://www.w3.org/2000/svg"
 width="8982.000000pt" height="2613.000000pt" viewBox="0 0 8982.000000 2613.000000"
 preserveAspectRatio="xMidYMid meet">

<g transform="translate(0.000000,2613.000000) scale(0.100000,-0.100000)"
fill="#000000" stroke="none">
<path d="M70110 23368 c-73 -123 -253 -387 -341 -498 -379 -482 -805 -837
-1300 -1085 l-148 -75 23 -52 c13 -29 60 -133 104 -230 l81 -177 -86 -198
c-154 -360 -610 -1436 -915 -2163 -602 -1434 -783 -1859 -1795 -4195 -1268
-2927 -1567 -3600 -1868 -4210 -241 -487 -416 -794 -666 -1165 -139 -207 -230
-323 -302 -383 -115 -97 -397 -271 -569 -352 -59 -27 -108 -53 -108 -57 0 -9
131 -51 260 -84 169 -42 461 -84 591 -84 l49 0 0 -105 0 -105 1445 0 1445 0 0
105 0 104 -32 6 c-18 3 -170 28 -336 56 -328 54 -477 88 -629 145 -226 84
-382 175 -514 301 -132 126 -189 233 -209 399 -32 259 88 762 352 1469 33 88
175 446 316 795 140 349 412 1024 603 1500 l347 865 2769 3 2769 2 48 -127
c619 -1629 1096 -2992 1300 -3713 105 -372 146 -581 146 -750 0 -187 -52 -320
-176 -449 -232 -243 -595 -402 -1096 -478 l-178 -27 0 -103 0 -103 2134 0
2135 0 -40 69 c-21 37 -39 71 -39 75 0 11 471 656 478 656 4 0 39 -26 77 -57
181 -146 494 -318 705 -387 148 -48 322 -82 493 -98 l137 -12 0 -123 0 -123
5374 0 5374 0 26 77 c14 43 350 1093 746 2333 396 1240 723 2260 725 2266 3
11 -222 101 -230 92 -1 -2 -40 -66 -86 -143 -655 -1105 -1462 -2091 -2304
-2816 -766 -660 -1598 -1079 -2517 -1268 -350 -72 -825 -121 -1583 -162 -436
-24 -4506 -21 -4530 3 -3 3 2359 3256 5249 7228 l5254 7223 -31 64 -31 63
-3706 0 c-4248 0 -7066 18 -7884 50 -142 6 -261 8 -264 6 -3 -4 -1521 -4424
-1522 -4432 0 -1 53 -21 117 -45 77 -28 118 -39 121 -31 8 24 292 444 401 592
283 385 750 961 1080 1330 444 498 967 1008 1262 1231 479 362 1058 650 1574
784 452 117 763 144 1915 165 669 12 4103 13 4098 1 -9 -25 -10035 -13790
-10044 -13790 -17 -1 -250 242 -325 339 -175 224 -226 318 -501 912 -277 600
-388 857 -513 1193 -43 116 -190 507 -327 870 -478 1266 -1041 2776 -1791
4805 -385 1041 -665 1791 -1577 4227 l-795 2122 -86 1 -87 0 -42 -72z m-1226
-2906 c65 -163 234 -592 376 -952 142 -360 396 -1004 565 -1430 512 -1291 900
-2289 1231 -3160 102 -267 193 -506 204 -532 l19 -48 -2591 0 c-2445 0 -2590
1 -2584 17 114 295 1343 3299 1591 3888 98 231 245 580 327 775 83 195 241
576 353 845 220 532 376 895 385 895 3 0 58 -134 124 -298z"/>
<path d="M15065 23329 c-293 -96 -793 -215 -1063 -255 -405 -58 -695 -71
-1782 -79 -465 -4 -1011 -11 -1215 -16 -586 -15 -5887 -23 -6720 -10 -2228 35
-2512 54 -3374 227 -151 30 -275 53 -276 52 -3 -5 -616 -3891 -618 -3922 -2
-27 1 -30 83 -57 46 -16 88 -28 93 -26 5 1 34 70 66 152 213 551 557 1123
1161 1930 174 233 269 343 402 470 455 433 888 639 1543 734 379 55 773 68
2413 77 l963 6 -4 -4658 c-3 -2775 -9 -4805 -15 -5019 -6 -198 -15 -733 -21
-1190 -17 -1252 -35 -1571 -117 -2025 -57 -317 -85 -371 -309 -596 -93 -94
-202 -196 -241 -227 -164 -128 -366 -245 -523 -301 -221 -79 -668 -175 -1084
-231 l-47 -6 0 -105 0 -104 3390 0 3390 0 0 105 c0 58 -2 105 -4 105 -22 0
-393 82 -551 121 -555 139 -740 206 -950 344 -205 135 -390 338 -477 523 -106
224 -137 481 -159 1330 -11 426 -5 9770 7 11241 l6 693 961 -5 c1911 -11 2279
-29 2793 -132 313 -63 554 -160 799 -323 357 -237 634 -547 1122 -1257 354
-513 699 -1112 912 -1582 18 -40 38 -73 44 -73 6 0 48 12 94 27 68 22 83 31
83 48 -1 11 -132 821 -293 1800 -161 979 -290 1781 -285 1783 10 5 200 -34
342 -69 324 -81 589 -196 776 -337 107 -81 274 -246 328 -324 161 -234 245
-664 273 -1388 14 -368 6 -7236 -9 -7830 -6 -217 -15 -723 -21 -1125 -12 -807
-22 -1095 -52 -1475 -52 -675 -122 -1039 -227 -1192 -37 -53 -165 -178 -248
-241 -245 -186 -659 -364 -1109 -476 -123 -31 -366 -81 -392 -81 -2 0 -3 -47
-3 -105 l0 -105 3075 0 3075 0 0 104 0 105 -47 6 c-319 42 -602 119 -880 240
-217 94 -382 205 -531 359 -167 172 -236 302 -281 523 -61 299 -63 396 -68
3401 l-4 2682 4111 0 4111 0 -4 -2282 c-5 -2604 -12 -3000 -63 -3548 -34 -372
-71 -539 -141 -643 -195 -289 -767 -556 -1434 -671 -113 -20 -473 -66 -511
-66 -5 0 -8 -47 -8 -105 l0 -105 3200 0 3200 0 0 105 c0 58 -3 105 -7 105 -5
0 -70 9 -145 20 -369 54 -765 161 -984 266 -242 115 -473 323 -607 546 -90
149 -131 390 -158 913 -20 401 -31 2203 -36 6290 -5 4197 -3 4422 33 4820 35
388 76 600 145 754 81 179 271 400 452 528 152 107 390 219 646 303 l114 38
71 -32 c305 -139 729 -510 1075 -941 162 -201 273 -361 581 -835 163 -250 407
-624 542 -830 455 -696 1159 -1828 1938 -3115 397 -656 744 -1221 1121 -1826
l279 -446 0 -574 c-1 -646 -14 -1731 -30 -2399 -5 -245 -15 -634 -20 -865 -14
-569 -39 -892 -96 -1234 -55 -333 -91 -421 -237 -582 -225 -249 -447 -429
-662 -537 -190 -95 -590 -195 -984 -247 -63 -8 -116 -15 -118 -15 -2 0 -3 -47
-3 -105 l0 -105 3215 0 3215 0 0 105 0 104 -37 7 c-314 54 -922 211 -1083 278
-270 114 -498 308 -668 568 -102 157 -157 378 -182 733 -26 381 -30 777 -30
3044 l0 2374 337 511 c416 631 819 1250 1203 1846 360 559 629 972 1008 1546
283 431 498 761 697 1074 240 376 638 960 798 1170 450 589 950 1001 1472
1213 166 68 185 72 242 57 84 -24 242 -89 355 -146 314 -161 544 -365 731
-649 189 -287 263 -555 289 -1047 6 -122 12 -1016 15 -2233 7 -3122 -15 -4624
-97 -6570 -41 -962 -156 -1670 -357 -2195 -226 -592 -547 -974 -1033 -1229
-261 -136 -553 -240 -890 -316 -63 -14 -125 -28 -137 -30 -22 -5 -23 -10 -23
-110 l0 -105 2720 0 2720 0 0 105 0 104 -32 5 c-228 37 -366 62 -478 87 -1053
233 -1585 680 -1835 1540 -111 382 -157 801 -186 1699 -13 415 -6 5614 10
6740 5 377 13 1283 17 2014 7 1266 8 1327 25 1295 9 -19 128 -288 264 -599
307 -703 416 -945 817 -1830 380 -836 597 -1322 978 -2185 156 -352 485 -1097
732 -1655 1150 -2595 1131 -2550 2913 -6680 l123 -285 64 -3 63 -3 24 63 c13
35 97 236 186 448 90 212 260 624 378 915 322 795 478 1166 612 1450 25 55
308 685 627 1400 957 2143 1211 2708 1801 4000 464 1018 687 1515 1555 3465
431 971 795 1788 808 1815 l23 50 -3 -5030 c-3 -4968 -5 -5321 -36 -6035 -22
-486 -88 -972 -170 -1248 -119 -400 -320 -658 -716 -919 -343 -226 -741 -372
-1203 -443 -107 -17 -426 -50 -478 -50 -10 0 -13 -30 -13 -115 l0 -115 2800 0
2800 0 0 113 0 113 113 18 c61 10 150 26 197 37 104 24 310 89 310 98 0 3 -44
24 -98 46 -372 151 -709 395 -938 678 -78 98 -114 164 -159 300 -64 192 -110
486 -134 857 -25 374 -33 1875 -28 5195 4 3266 7 3519 37 4245 41 992 71 1356
136 1680 71 355 225 634 486 885 289 278 585 416 1035 485 114 17 361 40 436
40 l27 0 0 105 0 105 -2219 0 -2219 0 -45 -112 c-405 -1011 -2128 -4941 -3592
-8193 -460 -1021 -1289 -2836 -1358 -2971 l-25 -49 -15 35 c-20 48 -4932
11228 -4948 11263 l-12 27 -3989 0 -3988 0 0 -105 c0 -58 2 -105 5 -105 16 0
555 -86 660 -105 628 -117 986 -351 1081 -710 15 -55 19 -106 19 -240 0 -202
-12 -268 -90 -501 -64 -191 -126 -336 -248 -579 -122 -245 -164 -318 -605
-1060 -256 -429 -859 -1386 -1659 -2630 -657 -1023 -921 -1421 -933 -1408 -4
4 -96 157 -205 338 -260 433 -713 1169 -1065 1730 -424 675 -565 903 -810
1315 -123 206 -339 569 -481 805 -431 720 -818 1407 -925 1644 -69 154 -130
333 -145 431 -14 93 -6 216 21 302 96 311 522 524 1225 613 149 19 505 55 548
55 4 0 7 47 7 105 l0 105 -5795 0 -5795 0 0 -105 c0 -103 0 -105 23 -105 65 0
350 -33 485 -55 180 -31 441 -93 536 -129 267 -101 513 -306 724 -603 139
-195 215 -430 242 -748 23 -269 51 -779 60 -1080 5 -176 10 -1223 10 -2327 l0
-2008 -4110 0 -4110 0 0 1348 c0 1820 24 3706 51 4032 30 373 132 639 346 902
181 223 446 394 778 503 146 48 445 113 733 161 l32 5 0 104 0 105 -2994 0
-2994 0 -7 43 c-21 138 -28 167 -39 166 -6 -1 -51 -14 -101 -30z"/>
</g>
</svg>
